<svg preserveAspectRatio="none" width="100%" height="100%" overflow="visible" style="display: block;" viewBox="0 0 39.2969 38.18" fill="none" xmlns="http://www.w3.org/2000/svg">
<g id="Layer_x0020_1">
<path id="Vector" d="M34.6051 18.4126L32.6959 17.9014C31.7307 17.6992 31.0542 18.0781 30.7405 19.0305L28.6745 26.7408C28.4543 27.5629 28.9438 28.4128 29.7654 28.6325L31.726 29.1579L34.6051 18.4126ZM17.8139 34.5215C17.8139 33.2544 19.7401 33.2544 19.7401 34.5215V37.2301C19.7401 38.4967 17.8139 38.4967 17.8139 37.2301V34.5215ZM20.9099 34.5215C20.9099 33.2544 22.836 33.2544 22.836 34.5215V34.5815C25.1321 33.7462 27.1102 32.1962 28.4676 30.1637C27.1008 29.3913 26.4058 27.775 26.8159 26.2443L28.8956 18.482C29.3293 16.8644 30.878 15.7863 32.5358 15.9233C32.5688 15.5718 32.5788 15.2104 32.5788 14.857C32.5788 7.74715 26.7582 1.92663 19.6484 1.92663C12.5386 1.92663 6.71809 7.74715 6.71809 14.857C6.71809 15.2089 6.72707 15.5727 6.76108 15.9233C8.41984 15.7853 9.96851 16.8663 10.4013 18.4825L12.4814 26.2443C12.9742 28.0859 11.8682 29.9983 10.028 30.4916L7.13904 31.2654C6.92124 31.3236 6.70108 31.3023 6.50927 31.2191L2.78688 29.8108C2.48735 29.713 2.24168 29.4706 2.15475 29.1442C1.44703 26.5041 0.736469 23.8651 0.0325268 21.2246C-0.0425919 20.9421 0.0112668 20.6293 0.205914 20.3817L2.75759 17.1379C2.88562 16.973 3.06468 16.8578 3.26547 16.803L4.87792 16.3712C4.82217 15.8694 4.79146 15.3615 4.79146 14.857C4.79146 6.68367 11.4747 0 19.6484 0C27.8217 0 34.5054 6.68367 34.5054 14.857C34.5054 15.3611 34.4752 15.8699 34.4189 16.3712L36.0314 16.803C36.2336 16.8601 36.4098 16.9712 36.5393 17.1379L39.0909 20.3817C39.2856 20.6293 39.3395 20.9421 39.2643 21.2246C38.5604 23.8651 37.8498 26.5041 37.1421 29.1442C37.0552 29.4706 36.8095 29.713 36.51 29.8108L32.7885 31.2187C32.5962 31.3023 32.3756 31.3236 32.1578 31.2654L30.3498 30.7812C28.6395 33.5762 25.9693 35.6455 22.836 36.6055V37.2301C22.836 38.4967 20.9099 38.4967 20.9099 37.2301V34.5215ZM33.8208 28.7733L35.4111 28.1719L37.281 21.1924L36.2152 19.8375L33.8208 28.7733ZM3.08216 19.8375L2.01585 21.1924L3.88579 28.1719L5.47651 28.7738L3.08216 19.8375ZM6.651 17.8877L4.69178 18.4126L7.57133 29.1579L9.5315 28.6325C10.3531 28.4123 10.8425 27.5629 10.6224 26.7408L8.54267 18.979C8.32251 18.1575 7.47306 17.6675 6.651 17.8877Z" fill="var(--fill-0, white)"/>
</g>
</svg>
