<svg preserveAspectRatio="none" width="100%" height="100%" overflow="visible" style="display: block;" viewBox="0 0 39.9994 40" fill="none" xmlns="http://www.w3.org/2000/svg">
<g id="Group">
<path id="Vector" d="M38.1813 20.1678V14.5458C38.1813 12.6395 36.7026 11.0892 34.8344 10.9388L29.6134 1.81965C29.1296 0.976257 28.3483 0.373454 27.4135 0.123146C26.4831 -0.125458 25.5102 0.00510802 24.6774 0.489788L6.77972 10.9095H3.63633C1.63088 10.9095 0 12.5403 0 14.5458V36.3637C0 38.3691 1.6308 40 3.63633 40H34.5449C36.5504 40 38.1813 38.3692 38.1813 36.3637V30.7417C39.2371 30.3652 39.9994 29.3656 39.9994 28.182V22.7275C39.9994 21.5439 39.2371 20.5443 38.1813 20.1678ZM32.7217 10.9095H24.7982L30.7409 7.44967L32.7217 10.9095ZM29.8376 5.87189L21.1847 10.9095H17.5956L28.9402 4.3045L29.8376 5.87189ZM25.5927 2.0611C26.0037 1.8205 26.4839 1.75659 26.943 1.87914C27.4073 2.0034 27.7944 2.30348 28.035 2.72339L28.0368 2.72671L13.9822 10.9095H10.3933L25.5927 2.0611ZM36.3631 36.3637C36.3631 37.3659 35.5472 38.1818 34.5449 38.1818H3.63633C2.63408 38.1818 1.81821 37.3659 1.81821 36.3637V14.5458C1.81821 13.5436 2.63408 12.7277 3.63633 12.7277H34.5449C35.5472 12.7277 36.3631 13.5436 36.3631 14.5458V20.0003H30.9086C27.9008 20.0003 25.4542 22.447 25.4542 25.4548C25.4542 28.4625 27.9008 30.9092 30.9086 30.9092H36.3631V36.3637ZM38.1813 28.182C38.1813 28.6835 37.7738 29.0911 37.2722 29.0911H30.9086C28.9032 29.0911 27.2723 27.4603 27.2723 25.4548C27.2723 23.4493 28.9031 21.8184 30.9086 21.8184H37.2722C37.7737 21.8184 38.1813 22.2259 38.1813 22.7275V28.182Z" fill="var(--fill-0, white)"/>
<path id="Vector_2" d="M30.9086 23.6366C29.9064 23.6366 29.0905 24.4525 29.0905 25.4547C29.0905 26.457 29.9064 27.2729 30.9086 27.2729C31.9109 27.2729 32.7267 26.457 32.7267 25.4547C32.7268 24.4525 31.911 23.6366 30.9086 23.6366Z" fill="var(--fill-0, white)"/>
</g>
</svg>
