<svg preserveAspectRatio="none" width="100%" height="100%" overflow="visible" style="display: block;" viewBox="0 0 40 40" fill="none" xmlns="http://www.w3.org/2000/svg">
<g id="fi_2962303" clip-path="url(#clip0_14214_21137)">
<path id="Vector" d="M37.8131 16.7L35.4681 14.8238C35.4588 14.8163 35.4494 14.8069 35.44 14.7994L37.6231 14.3625C37.915 14.3044 38.125 14.0481 38.125 13.75V11.875C38.125 11.53 37.845 11.25 37.5 11.25H34.375C34.03 11.25 33.75 11.53 33.75 11.875V12.97C33.7356 12.9506 33.7212 12.9313 33.7069 12.9119C33.6675 12.8031 33.5975 12.7144 33.5087 12.6437C33.1569 12.1456 32.8556 11.6469 32.6594 11.2156L31.6031 8.8925C30.93 7.41062 29.1275 6.25 27.5 6.25H12.5C10.8725 6.25 9.07 7.41062 8.39688 8.8925L7.34125 11.215C7.145 11.6463 6.84375 12.1456 6.49188 12.6437C6.40313 12.7144 6.33375 12.8031 6.29375 12.9119C6.27937 12.9313 6.26563 12.95 6.25063 12.97V11.875C6.25063 11.53 5.97063 11.25 5.62563 11.25H2.5C2.155 11.25 1.875 11.53 1.875 11.875V13.75C1.875 14.0481 2.085 14.3044 2.3775 14.3625L4.56062 14.7994C4.55125 14.8069 4.54187 14.8163 4.5325 14.8238L2.18688 16.7C0.960625 17.6812 0 19.68 0 21.25V31.875C0 32.9088 0.84125 33.75 1.875 33.75H6.875C7.90875 33.75 8.75 32.9088 8.75 31.875V30.625H31.25V31.875C31.25 32.9088 32.0912 33.75 33.125 33.75H38.125C39.1588 33.75 40 32.9088 40 31.875V21.25C40 19.68 39.0394 17.6812 37.8131 16.7ZM32.1338 29.375L30.7006 27.9419C30.0925 27.3338 28.985 26.875 28.125 26.875H11.5625C10.7025 26.875 9.595 27.3338 8.98687 27.9419L7.55375 29.375H3.125C2.09125 29.375 1.25 28.5338 1.25 27.5V24.375H1.875V25C1.875 26.3788 2.99625 27.5 4.375 27.5H6.25C6.595 27.5 6.875 27.22 6.875 26.875C6.875 26.53 6.595 26.25 6.25 26.25H4.375C3.68562 26.25 3.125 25.6894 3.125 25V24.375H4.375C4.89375 24.375 5.7 24.7087 6.06687 25.0756C6.18875 25.1975 6.34875 25.2588 6.50875 25.2588C6.66875 25.2588 6.82875 25.1975 6.95063 25.0756C7.195 24.8312 7.195 24.4363 6.95063 24.1919C6.3425 23.5838 5.23562 23.125 4.375 23.125H1.25V21.25C1.25 21.0294 1.285 20.7912 1.33437 20.5481C1.73437 20.9656 2.31625 21.25 3.125 21.25H8.125C8.29062 21.25 8.44937 21.1844 8.56687 21.0669L9.375 20.2588L10.1831 21.0669C10.3 21.1844 10.4594 21.25 10.625 21.25H17.8663L19.5581 22.9419C19.68 23.0638 19.84 23.125 20 23.125C20.16 23.125 20.32 23.0638 20.4419 22.9419L22.1338 21.25H29.375C29.5406 21.25 29.7 21.1844 29.8169 21.0669L30.625 20.2588L31.4331 21.0669C31.55 21.1844 31.7094 21.25 31.875 21.25H36.875C37.6838 21.25 38.2656 20.9656 38.6656 20.5481C38.715 20.7912 38.75 21.0294 38.75 21.25V23.125H35.625C34.765 23.125 33.6575 23.5838 33.0494 24.1919C32.805 24.4363 32.805 24.8312 33.0494 25.0756C33.1713 25.1975 33.3312 25.2588 33.4912 25.2588C33.6512 25.2588 33.8112 25.1975 33.9331 25.0756C34.3 24.7087 35.1063 24.375 35.625 24.375H36.875V25C36.875 25.6894 36.3144 26.25 35.625 26.25H33.75C33.405 26.25 33.125 26.53 33.125 26.875C33.125 27.22 33.405 27.5 33.75 27.5H35.625C37.0038 27.5 38.125 26.3788 38.125 25V24.375H38.75V27.5C38.75 28.5338 37.9088 29.375 36.875 29.375H32.1338ZM30.3662 29.375H9.32125L9.87063 28.8256C10.2375 28.4587 11.0438 28.125 11.5625 28.125H28.125C28.6437 28.125 29.45 28.4587 29.8169 28.8256L30.3662 29.375ZM7.225 13.75H32.775C33.3806 14.5506 34.0725 15.3081 34.6869 15.8L35.4387 16.4013L31.0181 18.1694C31.0175 18.1694 31.0175 18.17 31.0169 18.17C30.9412 18.2006 30.87 18.2462 30.8087 18.3075L30.1837 18.9325L29.1162 20H21.875C21.7094 20 21.55 20.0656 21.4331 20.1831L20 21.6162L18.5669 20.1831C18.45 20.0656 18.2906 20 18.125 20H10.8837L9.81687 18.9331L9.19187 18.3081C9.13062 18.2469 9.05937 18.2012 8.98375 18.1706C8.98312 18.1706 8.98312 18.17 8.9825 18.17L4.56187 16.4019L5.31375 15.8006C5.9275 15.3081 6.61938 14.5506 7.225 13.75ZM38.0881 19.0119C37.9625 19.665 37.5575 20 36.875 20H32.1338L31.5088 19.375L31.6013 19.2825L36.5606 17.2987L37.0319 17.6762C37.4281 17.9931 37.7938 18.475 38.0881 19.0119ZM35 12.5H36.875V13.2375L35 13.6125V12.5ZM8.47812 11.7325L9.53375 9.41C10.005 8.37437 11.3631 7.5 12.5 7.5H27.5C28.6369 7.5 29.995 8.37438 30.4656 9.40938L31.5219 11.7325C31.6319 11.9737 31.775 12.2344 31.9319 12.5H8.06813C8.225 12.2344 8.36875 11.9737 8.47812 11.7325ZM3.125 12.5H5V13.6125L3.125 13.2375V12.5ZM2.9675 17.6762L3.43875 17.2987L8.39875 19.2825L8.49125 19.375L7.86625 20H3.125C2.4425 20 2.0375 19.665 1.91188 19.0119C2.20625 18.475 2.57125 17.9931 2.9675 17.6762ZM6.875 32.5H1.875C1.53063 32.5 1.25 32.2194 1.25 31.875V29.9844C1.77375 30.3806 2.41875 30.625 3.125 30.625H7.5V31.875C7.5 32.2194 7.21937 32.5 6.875 32.5ZM38.125 32.5H33.125C32.7806 32.5 32.5 32.2194 32.5 31.875V30.625H36.875C37.5812 30.625 38.2263 30.3806 38.75 29.9844V31.875C38.75 32.2194 38.4694 32.5 38.125 32.5Z" fill="var(--fill-0, white)"/>
</g>
<defs>
<clipPath id="clip0_14214_21137">
<rect width="40" height="40" fill="white"/>
</clipPath>
</defs>
</svg>
