<svg preserveAspectRatio="none" width="100%" height="100%" overflow="visible" style="display: block;" viewBox="0 0 38.8971 40" fill="none" xmlns="http://www.w3.org/2000/svg">
<g id="Group">
<path id="Vector" d="M33.5568 18.2908V8.20249C33.5568 5.80482 31.5934 3.82445 29.1956 3.82445H28.6524V3.14058C28.6524 1.42987 27.2655 0.0430216 25.5548 0.0430216C23.8441 0.0430216 22.4573 1.42987 22.4573 3.14058V3.82445H11.0996V3.14058C11.0996 1.40612 9.69345 0 7.95899 0C6.22453 0 4.81842 1.40612 4.81842 3.14058V3.82445H4.34905C1.95129 3.82445 0 5.80482 0 8.20249V31.3674C0 33.7651 1.95129 35.7465 4.34905 35.7465H17.995C20.2448 38.4375 23.5701 39.9948 27.0778 40C33.5912 40 38.8971 34.6931 38.8971 28.1795C38.8973 24.051 36.7404 20.4035 33.5568 18.2908ZM24.1781 3.14058C24.1649 2.39114 24.7616 1.77283 25.511 1.75958C25.5231 1.75941 25.5351 1.75932 25.5472 1.75941C26.3037 1.75141 26.9235 2.35818 26.9315 3.11476C26.9316 3.12337 26.9316 3.13197 26.9315 3.14058V6.49178H24.1781V3.14058ZM6.53928 3.14058C6.54745 2.36954 7.17918 1.75115 7.95022 1.75932C7.95159 1.75932 7.95288 1.75932 7.95417 1.75941C8.72805 1.75941 9.3787 2.36679 9.3787 3.14058V6.49178H6.53928V3.14058ZM1.72086 8.20249C1.72086 6.75361 2.90017 5.54531 4.34905 5.54531H4.81842V7.38801C4.81842 7.86314 5.21525 8.21265 5.69046 8.21265H10.2181C10.6932 8.21265 11.0996 7.86314 11.0996 7.38801V5.54531H22.4573V7.38801C22.4445 7.8307 22.7931 8.19991 23.2358 8.21265C23.2516 8.21308 23.2674 8.21308 23.2833 8.21265H27.8109C28.2604 8.22762 28.6371 7.87527 28.652 7.4257C28.6525 7.41313 28.6525 7.40057 28.6524 7.38801V5.54531H29.1956C30.6543 5.56002 31.8305 6.7438 31.836 8.20249V10.966H1.72086V8.20249ZM4.34905 34.0256C2.90017 34.0256 1.72086 32.8163 1.72086 31.3674V12.6869H31.836V17.3551C30.3382 16.6974 28.7201 16.3583 27.0843 16.3589C20.5709 16.3589 15.2683 21.6735 15.2683 28.1871C15.265 30.2335 15.7939 32.2454 16.8032 34.0256H4.34905ZM27.0778 38.2638C21.5041 38.2638 16.9857 33.7454 16.9857 28.1717C16.9857 22.598 21.5041 18.0796 27.0778 18.0796C32.6515 18.0796 37.1699 22.598 37.1699 28.1717V28.1718C37.1636 33.7429 32.6489 38.2575 27.0778 38.2638Z" fill="var(--fill-0, white)"/>
</g>
</svg>
