<svg preserveAspectRatio="none" width="100%" height="100%" overflow="visible" style="display: block;" viewBox="0 0 40.0006 40" fill="none" xmlns="http://www.w3.org/2000/svg">
<g id="shelter_export">
<path id="car,-vehicle,-drive,-roof,-home,-garage" d="M4.70619 35.2941C3.4067 35.2941 2.35325 34.2407 2.35325 32.9412V28.525C2.35325 28.2364 2.38864 27.9489 2.45862 27.669L2.99419 25.5268C3.09271 25.1327 3.2452 24.7635 3.44262 24.4262L2.06793 24.0825C1.43758 23.925 1.0543 23.2862 1.21189 22.6559C1.36948 22.0255 2.00822 21.6422 2.63857 21.7998L4.85102 22.353H6.22675L8.37103 16.2776C9.20109 13.9257 11.424 12.353 13.918 12.353H26.0826C28.5766 12.353 30.7995 13.9257 31.6296 16.2776L33.7739 22.353H35.1496L37.362 21.7998C37.9924 21.6422 38.6311 22.0255 38.7887 22.6559C38.9463 23.2862 38.563 23.925 37.9327 24.0825L36.558 24.4262C36.7554 24.7635 36.9079 25.1327 37.0064 25.5268L37.542 27.669C37.612 27.9489 37.6474 28.2364 37.6474 28.525V32.9412C37.6474 34.2407 36.5939 35.2941 35.2944 35.2941V37.6471C35.2944 38.9466 34.241 40 32.9415 40H28.2356C26.9361 40 25.8827 38.9466 25.8827 37.6471V35.2941H14.118V37.6471C14.118 38.9466 13.0645 40 11.765 40H7.05913C5.75964 40 4.70619 38.9466 4.70619 37.6471V35.2941ZM31.2787 22.353L29.4108 17.0606C28.9127 15.6495 27.579 14.7059 26.0826 14.7059H13.918C12.4216 14.7059 11.0879 15.6495 10.5898 17.0606L8.72194 22.353H31.2787ZM27.8237 32.9412H35.2944V28.525C35.2944 28.4288 35.2826 28.3329 35.2593 28.2396L34.7237 26.0975C34.5193 25.2796 33.7845 24.7059 32.9415 24.7059H7.05913C6.21614 24.7059 5.48132 25.2796 5.27687 26.0975L4.7413 28.2396C4.71797 28.3329 4.70619 28.4288 4.70619 28.525V32.9412H12.1769L14.2193 28.3457C14.4082 27.9209 14.8295 27.6471 15.2944 27.6471H24.7062C25.1711 27.6471 25.5924 27.9209 25.7813 28.3457L27.8237 32.9412ZM32.9415 35.2941H28.2356V37.6471H32.9415V35.2941ZM25.2488 32.9412L23.9416 30H16.059L14.7518 32.9412H25.2488ZM7.05913 35.2941V37.6471H11.765V35.2941H7.05913ZM1.64833 10.4896C1.05306 10.7501 0.359364 10.4786 0.0989333 9.88333C-0.161497 9.28806 0.109958 8.59436 0.705228 8.33393L19.5288 0.0986382C19.8294 -0.0328794 20.1712 -0.0328794 20.4719 0.0986382L39.2954 8.33393C39.8907 8.59436 40.1621 9.28806 39.9017 9.88333C39.6413 10.4786 38.9476 10.7501 38.3523 10.4896L20.0003 2.46063L1.64833 10.4896ZM31.765 30C30.7904 30 30.0003 29.2099 30.0003 28.2353C30.0003 27.2607 30.7904 26.4706 31.765 26.4706C32.7396 26.4706 33.5297 27.2607 33.5297 28.2353C33.5297 29.2099 32.7396 30 31.765 30ZM8.2356 30C7.26098 30 6.4709 29.2099 6.4709 28.2353C6.4709 27.2607 7.26098 26.4706 8.2356 26.4706C9.21022 26.4706 10.0003 27.2607 10.0003 28.2353C10.0003 29.2099 9.21022 30 8.2356 30Z" fill="var(--fill-0, white)"/>
</g>
</svg>
