<svg preserveAspectRatio="none" width="100%" height="100%" overflow="visible" style="display: block;" viewBox="0 0 48 48" fill="none" xmlns="http://www.w3.org/2000/svg">
<g id="fi_1758455" clip-path="url(#clip0_14219_26651)">
<path id="Vector" d="M30.2143 37.6532C29.5167 37.6532 28.9114 37.1346 28.8209 36.4245C28.7231 35.654 29.2681 34.9502 30.0382 34.852C34.4818 34.2859 38.461 33.0818 41.2428 31.4609C43.7868 29.9789 45.1876 28.2364 45.1876 26.5548C45.1876 24.7014 43.5484 23.1849 42.1729 22.2387C41.5332 21.7985 41.3713 20.9232 41.8115 20.2831C42.2517 19.6433 43.1273 19.4815 43.7671 19.9216C46.5363 21.8267 48.0001 24.1202 48.0001 26.5552C48.0001 29.3186 46.1533 31.8553 42.6589 33.8911C39.5135 35.7236 35.2724 37.0207 30.3938 37.6422C30.3334 37.6495 30.2733 37.6532 30.2143 37.6532Z" fill="var(--fill-0, white)"/>
<path id="Vector_2" d="M23.6572 35.6393L19.9072 31.8893C19.3579 31.34 18.4676 31.34 17.9183 31.8893C17.3694 32.4382 17.3694 33.3289 17.9183 33.8778L19.014 34.9735C14.8128 34.5396 10.9962 33.5614 8.04088 32.1401C4.71825 30.5424 2.81249 28.5066 2.81249 26.5554C2.81249 24.9005 4.17699 23.1804 6.65441 21.7119C7.32274 21.3161 7.5432 20.4533 7.14732 19.7853C6.75109 19.117 5.88829 18.8965 5.22033 19.2924C0.905638 21.85 0 24.6537 0 26.5554C0 29.6755 2.42285 32.5591 6.82213 34.6751C10.2367 36.3168 14.6535 37.4165 19.4655 37.842L17.9183 39.3893C17.3694 39.9382 17.3694 40.8288 17.9183 41.3782C18.193 41.6525 18.5529 41.7898 18.9129 41.7898C19.2725 41.7898 19.6325 41.6525 19.9072 41.3782L23.6572 37.6282C24.2061 37.0789 24.2061 36.1882 23.6572 35.6393Z" fill="var(--fill-0, white)"/>
<path id="Vector_3" d="M14.7281 23.7389V23.4005C14.7281 22.207 13.9975 21.9756 13.0179 21.9756C12.4122 21.9756 12.2163 21.4413 12.2163 20.907C12.2163 20.3723 12.4122 19.838 13.0179 19.838C13.6947 19.838 14.4073 19.749 14.4073 18.3061C14.4073 17.2731 13.8196 17.0237 13.089 17.0237C12.2163 17.0237 11.771 17.2375 11.771 17.9322C11.771 18.5376 11.5037 18.9474 10.4706 18.9474C9.18811 18.9474 9.02808 18.68 9.02808 17.8249C9.02808 16.4359 10.0253 14.6367 13.089 14.6367C15.3514 14.6367 17.0613 15.4559 17.0613 17.8608C17.0613 19.1609 16.5804 20.3723 15.6898 20.7821C16.7408 21.1739 17.5066 21.9576 17.5066 23.4005V23.7389C17.5066 26.6601 15.4939 27.7646 13 27.7646C9.93628 27.7646 8.76074 25.8944 8.76074 24.3981C8.76074 23.5964 9.09912 23.3826 10.0787 23.3826C11.2187 23.3826 11.5037 23.6319 11.5037 24.3091C11.5037 25.1462 12.2877 25.3421 13.089 25.3421C14.3004 25.3421 14.7281 24.8968 14.7281 23.7389Z" fill="var(--fill-0, white)"/>
<path id="Vector_4" d="M28.3185 23.4005V23.5609C28.3185 26.6246 26.4123 27.7646 23.9543 27.7646C21.4963 27.7646 19.5723 26.6246 19.5723 23.5609V18.8404C19.5723 15.7767 21.5494 14.6367 24.1147 14.6367C27.125 14.6367 28.3185 16.507 28.3185 17.9853C28.3185 18.8404 27.9087 19.1074 27.0181 19.1074C26.2523 19.1074 25.5752 18.9115 25.5752 18.0923C25.5752 17.4155 24.8629 17.0592 24.0257 17.0592C22.9747 17.0592 22.3511 17.6114 22.3511 18.8404V20.4433C22.9213 19.8201 23.7229 19.6597 24.578 19.6597C26.6083 19.6597 28.3185 20.5503 28.3185 23.4005ZM22.3511 23.7568C22.3511 24.9858 22.9568 25.5201 23.9543 25.5201C24.9519 25.5201 25.5397 24.9858 25.5397 23.7568V23.5964C25.5397 22.296 24.9519 21.7972 23.9364 21.7972C22.9747 21.7972 22.3511 22.2605 22.3511 23.436V23.7568Z" fill="var(--fill-0, white)"/>
<path id="Vector_5" d="M30.4736 23.5609V18.8404C30.4736 15.7767 32.3794 14.6367 34.8378 14.6367C37.2958 14.6367 39.2195 15.7767 39.2195 18.8404V23.5609C39.2195 26.6246 37.2958 27.7646 34.8378 27.7646C32.3794 27.7646 30.4736 26.6246 30.4736 23.5609ZM36.4407 18.8404C36.4407 17.6114 35.8353 17.0592 34.8378 17.0592C33.8402 17.0592 33.2524 17.6114 33.2524 18.8404V23.5609C33.2524 24.7899 33.8402 25.3421 34.8378 25.3421C35.8353 25.3421 36.4407 24.7899 36.4407 23.5609V18.8404Z" fill="var(--fill-0, white)"/>
<path id="Vector_6" d="M42.5957 14.625C40.2692 14.625 38.377 12.7324 38.377 10.4062C38.377 8.08007 40.2692 6.1875 42.5957 6.1875C44.9219 6.1875 46.8144 8.08007 46.8144 10.4062C46.8144 12.7324 44.9219 14.625 42.5957 14.625ZM42.5957 8.99999C41.8201 8.99999 41.1894 9.63097 41.1894 10.4062C41.1894 11.1819 41.8201 11.8125 42.5957 11.8125C43.371 11.8125 44.0019 11.1819 44.0019 10.4062C44.0019 9.63097 43.371 8.99999 42.5957 8.99999Z" fill="var(--fill-0, white)"/>
</g>
<defs>
<clipPath id="clip0_14219_26651">
<rect width="48" height="48" fill="white"/>
</clipPath>
</defs>
</svg>
