<svg preserveAspectRatio="none" width="100%" height="100%" overflow="visible" style="display: block;" viewBox="0 0 85.3333 32" fill="none" xmlns="http://www.w3.org/2000/svg">
<g id="FordOval 1" clip-path="url(#clip0_14191_4478)">
<path id="Vector" d="M42.6667 0C18.9854 0 0 7.09925 0 16C0 24.8474 19.1394 32 42.6667 32C66.1939 32 85.3333 24.8237 85.3333 16C85.3333 7.1763 66.1939 0 42.6667 0Z" fill="var(--fill-0, #00095B)"/>
<path id="Vector_2" d="M67.7312 11.4073C67.7875 11.3096 67.7282 11.2385 67.6038 11.2385C66.9608 11.2385 66.1164 11.2385 65.4469 11.2385C65.2869 11.2385 65.2039 11.2593 65.1299 11.4073C64.8839 11.8815 61.8708 16.397 61.3079 17.274C61.2131 17.4073 61.0976 17.3896 61.0857 17.2385C61.0294 16.717 60.579 16.1185 59.871 15.8311C59.3317 15.6118 58.8014 15.5733 58.2533 15.6444C57.2637 15.7778 56.3779 16.2993 55.6017 16.8888C54.4313 17.7778 53.4211 18.9303 52.1204 19.7836C51.4093 20.2459 50.4346 20.6518 49.7828 20.0473C49.1931 19.4993 49.2584 18.2844 50.162 17.3451C50.2568 17.2473 50.3723 17.3303 50.3546 17.4163C50.2686 17.84 50.3753 18.2636 50.6953 18.56C51.0893 18.9126 51.6522 18.954 52.1352 18.717C52.7041 18.4355 53.0389 17.8903 53.1366 17.2711C53.2877 16.3111 52.55 15.4666 51.6256 15.3985C50.876 15.3451 50.1561 15.6059 49.4539 16.1866C49.1013 16.477 48.9028 16.6933 48.5977 17.1259C48.5236 17.2326 48.411 17.2444 48.4139 17.0873C48.4496 15.8607 47.9399 15.1703 46.9267 15.1466C46.1386 15.1288 45.2971 15.5555 44.6424 16.077C43.9224 16.6548 43.2944 17.4193 42.6218 18.1393C42.5388 18.2281 42.4648 18.2251 42.441 18.0533C42.4203 17.2385 42.2158 16.4533 41.8396 15.8933C41.7063 15.6978 41.4248 15.6029 41.1908 15.7333C41.0811 15.7926 40.7049 15.9673 40.4294 16.1896C40.2931 16.3021 40.2397 16.4651 40.2989 16.6726C40.6634 17.8873 40.5834 19.2681 40.0886 20.4355C39.6354 21.5051 38.7554 22.4681 37.7213 22.794C37.04 23.0103 36.3319 22.9036 35.8934 22.2993C35.2919 21.4666 35.5349 20.0148 36.4326 18.8118C37.2236 17.7511 38.3702 17.0785 39.5109 16.6459C39.6442 16.5955 39.6739 16.5066 39.6354 16.394C39.5731 16.2073 39.4754 15.9496 39.4339 15.834C39.3302 15.5555 39.0369 15.5111 38.6784 15.5496C37.8488 15.6473 37.0992 15.9318 36.3614 16.3259C34.4238 17.3629 33.455 19.3688 33.0283 20.4444C32.824 20.96 32.6491 21.2829 32.421 21.5673C32.1158 21.9496 31.7336 22.2993 31.0315 22.9155C30.9692 22.9718 30.9219 23.0903 30.9752 23.2C31.0462 23.3481 31.4107 23.8636 31.5144 23.9081C31.6269 23.9644 31.7603 23.8844 31.8136 23.8488C32.3054 23.517 32.8891 22.9896 33.1765 22.6311C33.2773 22.5096 33.381 22.56 33.4343 22.7466C33.701 23.7036 34.403 24.4829 35.3749 24.8088C37.1496 25.4073 38.9924 24.5421 40.3819 23.0311C41.2648 22.0711 41.5848 21.4548 41.9226 21.037C42.4973 20.3259 43.6291 18.7348 44.9771 17.7126C45.472 17.3363 46.0556 17.0488 46.3518 17.2385C46.589 17.3926 46.663 17.7481 46.2867 18.4355C44.912 20.9451 42.8884 23.8963 42.518 24.6103C42.45 24.7348 42.5092 24.8326 42.6395 24.8326C43.3595 24.8296 44.0706 24.8296 44.7253 24.8296C44.8349 24.8236 44.8824 24.7763 44.9357 24.6993C45.9905 23.0488 46.983 21.4755 48.0466 19.8518C48.1059 19.757 48.1621 19.8311 48.1621 19.8726C48.1829 20.2488 48.2777 20.7644 48.4999 21.1051C48.9028 21.7303 49.4716 22 50.1057 22.0059C50.6093 22.0118 50.8642 21.9348 51.4064 21.7333C51.8478 21.5703 52.2034 21.354 52.4729 21.1615C52.6329 21.0518 52.6596 21.2355 52.6566 21.2651C52.4137 22.5748 52.7129 24.1303 54.0166 24.7733C55.575 25.5407 57.2874 24.4621 58.274 23.4873C58.3718 23.3926 58.4725 23.4044 58.4844 23.6059C58.5051 23.9793 58.674 24.4207 58.9821 24.7288C59.8087 25.5585 61.4738 25.2296 63.1478 23.9348C64.2203 23.1051 65.3461 21.9348 66.3594 20.6933C66.3979 20.6459 66.4246 20.5688 66.3534 20.4888C66.1994 20.3259 65.9742 20.1421 65.8231 20C65.7521 19.9407 65.6513 19.9585 65.5921 20.0029C64.5521 20.9926 63.6158 22.1215 62.2619 23.0548C61.8056 23.3748 61.0768 23.6296 60.7509 23.1881C60.6235 23.0163 60.6384 22.7793 60.7627 22.4681C61.1597 21.4844 67.4082 11.9703 67.7312 11.4073ZM59.471 19.3866C59.4828 19.4607 59.5777 19.5288 59.6725 19.5644C59.705 19.5763 59.7228 19.6 59.6873 19.677C59.4206 20.2459 59.1777 20.5748 58.8428 21.0696C58.5378 21.5259 58.1911 21.8844 57.7733 22.2251C57.1422 22.7466 56.2682 23.3155 55.5453 22.9333C55.2253 22.7673 55.0861 22.317 55.092 21.9526C55.1098 20.9273 55.5632 19.8785 56.4045 18.8444C57.4296 17.5821 58.5643 16.9273 59.308 17.2859C60.0784 17.6533 59.8325 18.5451 59.4888 19.2444C59.4592 19.2978 59.4592 19.3421 59.471 19.3866Z" fill="var(--fill-0, white)"/>
<path id="Vector_3" d="M22.4068 24.8029C20.078 24.8207 18.0248 23.3807 17.7878 20.8859C17.6574 19.5052 18.0486 18.2725 18.8278 17.2592C19.521 16.3555 20.6943 15.6059 21.6867 15.4222C22.0097 15.3629 22.4453 15.4015 22.6231 15.6148C22.9045 15.9437 22.8245 16.3022 22.5431 16.4474C21.7846 16.8355 20.872 17.4962 20.4217 18.4C20.0543 19.1377 19.9803 20.0295 20.5402 20.877C21.4764 22.2903 24.0837 22.3289 26.5102 20.074C27.1116 19.5229 27.6478 18.9925 28.196 18.3644C29.2625 17.1437 29.6181 16.6992 31.0402 14.7289C31.058 14.7052 31.0609 14.6755 31.0551 14.6607C31.0432 14.637 31.0224 14.6282 30.9809 14.6252C30.0329 14.6518 29.2063 14.9333 28.4033 15.5348C28.1723 15.7037 27.8405 15.68 27.6923 15.4577C27.5293 15.2059 27.6478 14.88 27.9145 14.6962C29.2063 13.7985 30.6166 13.6355 32.0594 13.3925C32.0594 13.3925 32.1601 13.3985 32.2431 13.2889C32.8357 12.5303 33.28 11.8429 33.9112 11.0755C34.5452 10.2963 35.3688 9.58219 35.994 9.04292C36.871 8.29034 37.4309 8.03552 38.0027 7.72737C38.1538 7.65033 37.9849 7.55552 37.9375 7.55552C34.7526 6.957 31.4402 6.1807 28.276 7.35404C26.0836 8.17182 25.1235 9.91107 25.5857 11.0695C25.9147 11.8933 26.9961 12.0267 28.0123 11.5318C28.8537 11.12 29.6329 10.4533 30.1869 9.597C30.4951 9.12292 31.1469 9.46367 30.7943 10.2903C29.8699 12.4682 28.0982 14.1925 25.9442 14.2667C24.1103 14.3259 22.9282 12.9777 22.9311 11.3125C22.9371 8.02959 26.5931 5.86662 30.4329 5.54367C35.0577 5.16144 39.4396 6.39404 44.0289 6.95107C47.5487 7.37774 50.9204 7.38662 54.4579 6.57477C54.8757 6.48292 55.1689 6.74959 55.1422 7.17329C55.1067 7.78367 54.6357 8.37034 53.4713 9.00737C52.1469 9.73329 50.7604 9.95552 49.3145 9.96737C45.8155 9.997 42.5535 8.63107 39.1819 7.89922C39.1878 8.04737 39.2234 8.22219 39.1019 8.317C37.2324 9.69477 35.5436 11.0962 34.4119 13.0607C34.3734 13.1052 34.3941 13.1495 34.4592 13.1437C35.4429 13.0903 36.3258 13.0667 37.2413 12.9925C37.4013 12.9807 37.4072 12.9392 37.3924 12.8207C37.3124 12.1422 37.5079 11.3718 38.1064 10.8385C38.7167 10.2903 39.4811 10.2281 39.9878 10.6222C40.5625 11.0695 40.5121 11.8785 40.1981 12.4829C39.8781 13.0962 39.3478 13.4252 38.8412 13.5852C38.8412 13.5852 38.7345 13.6089 38.7494 13.7067C38.7701 13.8607 39.4604 14.2459 39.5196 14.3467C39.5759 14.4444 39.5463 14.5955 39.4426 14.711C39.3686 14.794 39.2559 14.874 39.1078 14.871C38.9893 14.8682 38.9182 14.8267 38.7641 14.7467C38.453 14.5777 38.0649 14.3022 37.8072 13.9762C37.7183 13.8667 37.6738 13.8637 37.4546 13.8755C36.4621 13.9318 34.9156 14.0829 33.8667 14.2133C33.6119 14.2459 33.5764 14.2933 33.523 14.3792C31.852 17.1348 30.0684 20.1067 28.1071 22.0977C26.0065 24.2282 24.2585 24.7882 22.4068 24.8029ZM38.3316 12.557C38.3582 12.6992 38.4145 12.7259 38.4767 12.714C38.7937 12.6518 39.1434 12.3882 39.3508 12.0859C39.5374 11.8103 39.6263 11.4133 39.4396 11.2533C39.2737 11.111 39.0012 11.1495 38.8027 11.3274C38.4027 11.68 38.2812 12.1807 38.3316 12.557Z" fill="var(--fill-0, white)"/>
<path id="Vector_4" d="M42.6659 30.6047C20.0838 30.6047 1.77991 24.0684 1.77991 16.0032C1.77991 7.93804 20.0838 1.40174 42.6659 1.40174C65.2451 1.40174 83.5461 7.93804 83.5461 16.0032C83.5461 24.0684 65.2421 30.6047 42.6659 30.6047ZM42.6659 2.61656C20.8779 2.61656 3.2198 8.63729 3.2198 16.0032C3.2198 23.3721 20.8808 29.3928 42.6659 29.3928C64.4511 29.3928 82.1121 23.3721 82.1121 16.0032C82.1091 8.63729 64.4511 2.61656 42.6659 2.61656Z" fill="var(--fill-0, white)"/>
</g>
<defs>
<clipPath id="clip0_14191_4478">
<rect width="85.3333" height="32" fill="white"/>
</clipPath>
</defs>
</svg>
