<svg preserveAspectRatio="none" width="100%" height="100%" overflow="visible" style="display: block;" viewBox="0 0 26.8182 32" fill="none" xmlns="http://www.w3.org/2000/svg">
<g id="Group">
<path id="Vector" d="M26.8116 7.60629C26.7332 5.67204 25.4263 3.75087 22.8647 2.27405C17.6109 -0.758015 9.11588 -0.758015 3.89473 2.27405C1.28088 3.79008 -0.0129712 5.7766 9.80176e-05 7.76965V11.8669V11.9387V15.9706V16.0425V20.0743V20.1462V24.2369C0.0131672 26.2234 1.33316 28.2099 3.96007 29.726C6.58699 31.242 10.0242 32 13.4549 32C16.8855 32 20.3162 31.242 22.9235 29.726C25.5308 28.2099 26.8312 26.2234 26.8181 24.2369V20.1397V19.911V16.0359V15.8072V11.9322V11.7035V7.76965V7.76312V7.60629H26.8116ZM6.36481 8.0245C6.75035 7.89381 7.1555 7.76312 7.56065 7.63896C7.8547 7.54748 8.0246 7.52787 8.14876 7.59976C8.22064 7.63896 8.27945 7.71084 8.33826 7.8154C8.60618 8.31203 9.03747 8.74985 9.58638 9.15499C9.68439 9.22687 9.78241 9.29222 9.88697 9.35103C10.181 9.52093 10.5208 9.65816 10.9129 9.74311C11.9192 9.96529 12.8341 9.56667 12.723 8.94588C12.6838 8.73678 12.5792 8.52767 12.4485 8.33163C12.0957 7.82193 11.6644 7.33184 11.4291 6.796C11.0501 5.92689 11.2266 5.14274 12.4224 4.52195C13.7947 3.82275 15.3172 3.77701 16.9378 4.21483C17.5978 4.39126 17.5978 4.39779 18.101 4.10374C18.2774 3.99918 18.4473 3.90116 18.6237 3.80968C19.0093 3.59404 19.14 3.59404 19.5386 3.80315C19.5778 3.82275 19.617 3.84889 19.6562 3.86849C19.7346 3.91423 19.813 3.95998 19.8915 4.00572C19.9568 4.04493 20.0156 4.0776 20.0679 4.11027C20.7148 4.48274 20.656 4.51542 19.898 4.95324C19.3295 5.29304 19.3295 5.29304 19.813 5.67204C20.1855 5.9661 20.4796 6.2863 20.7083 6.6261C20.8324 6.8156 20.7606 6.95283 20.4534 7.05085C20.0025 7.19461 19.5582 7.3449 19.0942 7.48213C18.8132 7.56708 18.6499 7.58015 18.5257 7.50827C18.4538 7.46906 18.4016 7.40372 18.3428 7.3057C18.0552 6.8156 17.5913 6.39739 16.9705 6.04452C16.8921 5.99877 16.8137 5.95957 16.7352 5.91382C16.5392 5.81581 16.3366 5.72432 16.0883 5.66551C15.2127 5.46947 14.4481 5.7962 14.5527 6.33857C14.605 6.60649 14.7553 6.87441 14.9382 7.12926C15.2584 7.56708 15.5851 8.0049 15.8139 8.46232C16.5523 9.92608 14.9578 11.3637 12.4159 11.5075C11.501 11.5597 10.6319 11.4421 9.82162 11.1807C9.47529 11.0631 9.20737 11.0762 8.93945 11.2461C8.67153 11.416 8.38401 11.5728 8.09648 11.7296C7.84817 11.8734 7.59332 11.8799 7.33847 11.7427C7.18164 11.6577 7.03134 11.5728 6.88105 11.4813C6.73075 11.3964 6.58045 11.3049 6.43016 11.2134C6.17531 11.0566 6.20145 10.8997 6.44976 10.7494C6.65233 10.6318 6.84837 10.5077 7.05748 10.39C7.4953 10.1287 7.50837 10.109 7.1359 9.81499C6.6654 9.44252 6.24719 9.05044 5.9858 8.61262C5.77016 8.27935 5.82244 8.20094 6.36481 8.0245ZM24.9754 24.2499C24.9819 25.6157 23.8972 27.0272 22.0021 28.1315C19.7542 29.4384 16.7222 30.1572 13.4614 30.1572C10.2006 30.1572 7.1555 29.4384 4.89452 28.1315C2.97335 27.0206 1.869 25.6026 1.86246 24.2434V24.0474C2.43751 24.6159 3.13018 25.1517 3.96661 25.6353C6.59352 27.1513 10.0307 27.9093 13.4614 27.9093C16.8921 27.9093 20.3227 27.1513 22.9301 25.6353C23.7469 25.1648 24.4134 24.642 24.9754 24.0866V24.2499ZM24.9754 20.1462C24.9819 21.5119 23.8972 22.9234 22.0021 24.0278C19.7542 25.3347 16.7222 26.0535 13.4614 26.0535C10.2006 26.0535 7.1555 25.3347 4.89452 24.0278C2.97335 22.9169 1.869 21.4989 1.86246 20.1397V19.9436C2.43751 20.5122 3.13018 21.048 3.96661 21.5315C6.59352 23.0476 10.0307 23.8056 13.4614 23.8056C16.8921 23.8056 20.3227 23.0476 22.9301 21.5315C23.7469 21.0611 24.4134 20.5383 24.9754 19.9828V20.1462ZM24.9754 16.049C24.9819 17.4147 23.8972 18.8262 22.0021 19.9306C19.7542 21.2375 16.7222 21.9563 13.4614 21.9563C10.2006 21.9563 7.1555 21.2375 4.89452 19.9306C2.97335 18.8197 1.869 17.4017 1.86246 16.0425V15.8464C2.43751 16.4149 3.13018 16.9508 3.96661 17.4343C6.59352 18.9504 10.0307 19.7084 13.4614 19.7084C16.8921 19.7084 20.3227 18.9504 22.9301 17.4343C23.7469 16.9639 24.4134 16.4411 24.9754 15.8856V16.049ZM24.9754 11.9453C24.9819 13.311 23.8972 14.7225 22.0021 15.8268C19.7542 17.1338 16.7222 17.8526 13.4614 17.8526C10.2006 17.8526 7.1555 17.1338 4.89452 15.8268C2.97335 14.7159 1.869 13.2979 1.86246 11.9387V11.6708C2.43751 12.2393 3.13018 12.7752 3.96661 13.2587C9.22044 16.2908 17.7089 16.2908 22.9366 13.2587C23.7534 12.7882 24.4199 12.2655 24.9819 11.71V11.9453H24.9754Z" fill="currentColor"/>
</g>
</svg>
