<svg preserveAspectRatio="none" width="100%" height="100%" overflow="visible" style="display: block;" viewBox="0 0 32 22.5641" fill="none" xmlns="http://www.w3.org/2000/svg">
<g id="Vector">
<path d="M13.1685 4.70667C12.7079 4.70667 12.2044 4.87214 11.8568 5.26427C11.4016 5.77778 11.2589 7.31234 11.2758 8.08677C12.0444 8.10537 13.5138 8.08499 14.1091 7.49306C14.7315 6.87405 14.9018 5.79241 14.2399 5.13415C13.9519 4.84766 13.5672 4.70667 13.1685 4.70667Z" fill="currentColor"/>
<path d="M7.30222 4.70667C7.76287 4.70667 8.26639 4.87214 8.61395 5.26427C9.06913 5.77778 9.21183 7.31234 9.19494 8.08677C8.42639 8.10537 6.95692 8.08499 6.36171 7.49306C5.73928 6.87405 5.56896 5.79241 6.23084 5.13415C6.51891 4.84766 6.90352 4.70667 7.30222 4.70667Z" fill="currentColor"/>
<path d="M15.6903 3.68096C16.8591 4.84308 17.0148 6.67473 16.214 8.08677H32V2.93039C32 1.312 30.6856 0 29.0643 0H11.2615V3.16397C12.7002 2.35214 14.5182 2.51549 15.6903 3.68096C16.3562 4.34304 14.5182 2.51549 15.6903 3.68096Z" fill="currentColor"/>
<path d="M6.95515 13.8543L5.49867 12.4072L7.76144 10.1381H0V19.6336C0 21.2521 1.31439 22.5641 2.93573 22.5641H9.20643V11.5967L6.95515 13.8543Z" fill="currentColor"/>
<path d="M12.6974 10.1381L14.9301 12.3885L13.4698 13.8318L11.2615 11.6058V22.5641H29.0643C30.6856 22.5641 32 21.2521 32 19.6337V10.1381H12.6974Z" fill="currentColor"/>
<path d="M4.25388 8.08677C3.45299 6.67453 3.60896 4.84301 4.77757 3.68096C5.94961 2.51549 7.76759 2.35221 9.20643 3.16397V0H2.93573C1.31439 0 0 1.312 0 2.93039V8.08677H4.25388Z" fill="currentColor"/>
</g>
</svg>
