<svg preserveAspectRatio="none" width="100%" height="100%" overflow="visible" style="display: block;" viewBox="0 0 32.0001 32.0001" fill="none" xmlns="http://www.w3.org/2000/svg">
<path id="Vector" d="M15.9999 0C7.16338 0 0 7.16338 0 15.9999C0 24.8364 7.16338 32.0001 15.9999 32.0001C24.8364 32.0001 32.0001 24.8364 32.0001 15.9999C31.9901 7.16748 24.8326 0.0099609 15.9999 0ZM15.9999 3.2001C21.2716 3.18223 26.0083 6.41719 27.9103 11.3335C24.1676 9.64893 20.1041 8.79609 15.9999 8.8333C11.896 8.79609 7.83252 9.64893 4.08984 11.3335C5.9918 6.41719 10.7285 3.18223 15.9999 3.2001ZM13.3649 28.5258C7.79473 27.3363 3.67471 22.6181 3.24697 16.9383C8.025 16.9383 13.3649 23.3001 13.3649 28.5258ZM15.9999 18.3999C14.6745 18.3999 13.5999 17.3256 13.5999 15.9999C13.5999 14.6745 14.6745 13.5999 15.9999 13.5999C17.3256 13.5999 18.3999 14.6745 18.3999 15.9999C18.3999 17.3256 17.3256 18.3999 15.9999 18.3999ZM18.6352 28.5258C18.6352 23.3001 23.9751 16.9383 28.7534 16.9383C28.3254 22.6181 24.2054 27.3363 18.6352 28.5258Z" fill="currentColor"/>
</svg>
