<svg width="28" height="27" viewBox="0 0 28 27" fill="none" xmlns="http://www.w3.org/2000/svg">
<path fill-rule="evenodd" clip-rule="evenodd" d="M8.08216 0.081C9.54901 0.0149973 10.0166 0 13.7517 0C17.4875 0 17.9543 0.0157459 19.4204 0.081C20.8849 0.146254 21.885 0.375005 22.7598 0.70875C23.6773 1.04786 24.5084 1.57918 25.1953 2.26575C25.8948 2.94005 26.4361 3.75602 26.7814 4.65675C27.1213 5.5155 27.3536 6.49726 27.4208 7.93424C27.4881 9.37425 27.5033 9.83325 27.5033 13.5C27.5033 17.1667 27.4873 17.6257 27.4208 19.0658C27.3543 20.5027 27.1213 21.4845 26.7814 22.3432C26.43 23.2306 25.9593 23.9842 25.1953 24.7342C24.5085 25.4209 23.6773 25.9523 22.7598 26.2913C21.885 26.6249 20.8849 26.853 19.4212 26.919C17.9543 26.985 17.4868 27 13.7517 27C10.0166 27 9.54901 26.9843 8.08216 26.919C6.61838 26.8537 5.61832 26.6249 4.74357 26.2913C3.83977 25.9463 3.07197 25.4842 2.30799 24.7342C1.6085 24.0599 1.06723 23.2439 0.721963 22.3432C0.381996 21.4845 0.149743 20.5027 0.08251 19.0658C0.0152768 17.6257 0 17.1675 0 13.5C0 9.8325 0.0160394 9.37425 0.08251 7.93501C0.148981 6.49726 0.381996 5.5155 0.721963 4.65675C1.06739 3.75608 1.60862 2.94015 2.30799 2.26575C2.99485 1.57906 3.82603 1.0477 4.74357 0.70875C5.61832 0.375005 6.61838 0.147003 8.08216 0.081ZM19.3088 2.511C17.8588 2.44649 17.4234 2.43225 13.7517 2.43225C10.08 2.43225 9.64451 2.44649 8.19447 2.511C6.85368 2.571 6.12561 2.79074 5.64124 2.976C4.9995 3.2205 4.5411 3.51299 4.05979 3.98549C3.57926 4.45799 3.28054 4.908 3.03148 5.53799C2.84277 6.0135 2.61893 6.72825 2.55781 8.0445C2.4921 9.468 2.47759 9.8955 2.47759 13.5C2.47759 17.1045 2.4921 17.532 2.55781 18.9555C2.61893 20.2717 2.84277 20.9865 3.03148 21.4621C3.25178 22.0484 3.60318 22.5789 4.05979 23.0146C4.50347 23.4628 5.04388 23.8077 5.64124 24.024C6.12561 24.2093 6.85368 24.429 8.19447 24.489C9.64451 24.5536 10.0792 24.5678 13.7517 24.5678C17.4241 24.5678 17.8588 24.5536 19.3088 24.489C20.6496 24.429 21.3777 24.2093 21.8622 24.024C22.5039 23.7795 22.9623 23.4871 23.4436 23.0146C23.9002 22.579 24.2516 22.0484 24.4719 21.4621C24.6606 20.9865 24.8844 20.2717 24.9455 18.9555C25.0113 17.532 25.0258 17.1045 25.0258 13.5C25.0258 9.8955 25.0113 9.468 24.9455 8.0445C24.8844 6.72825 24.6606 6.0135 24.4719 5.53799C24.2228 4.908 23.9249 4.45799 23.4436 3.98549C22.9623 3.51376 22.5039 3.2205 21.8622 2.976C21.3777 2.79074 20.6496 2.571 19.3088 2.511ZM11.9958 17.6616C12.5525 17.888 13.1491 18.0045 13.7517 18.0045C14.9687 18.0045 16.1357 17.5299 16.9962 16.6851C17.8568 15.8404 18.3402 14.6946 18.3402 13.5C18.3402 12.3054 17.8568 11.1596 16.9962 10.3148C16.1357 9.47008 14.9687 8.99549 13.7517 8.99549C13.1491 8.99549 12.5525 9.11201 11.9958 9.33838C11.439 9.56475 10.9332 9.89654 10.5072 10.3148C10.0811 10.7331 9.7431 11.2297 9.51251 11.7762C9.28192 12.3227 9.16324 12.9085 9.16324 13.5C9.16324 14.0915 9.28192 14.6773 9.51251 15.2238C9.7431 15.7703 10.0811 16.2669 10.5072 16.6851C10.9332 17.1034 11.439 17.4352 11.9958 17.6616ZM8.75363 8.59338C10.0792 7.29206 11.8771 6.56099 13.7517 6.56099C15.6264 6.56099 17.4242 7.29206 18.7498 8.59338C20.0753 9.89469 20.82 11.6597 20.82 13.5C20.82 15.3403 20.0753 17.1052 18.7498 18.4066C17.4242 19.7079 15.6264 20.439 13.7517 20.439C11.8771 20.439 10.0792 19.7079 8.75363 18.4066C7.42805 17.1052 6.68335 15.3403 6.68335 13.5C6.68335 11.6597 7.42805 9.89469 8.75363 8.59338ZM22.3873 7.59483C22.7006 7.28721 22.8767 6.87002 22.8767 6.435C22.8767 5.99996 22.7006 5.58277 22.3873 5.27516C22.0739 4.96756 21.649 4.79475 21.2058 4.79475C20.7628 4.79475 20.3377 4.96756 20.0244 5.27516C19.711 5.58277 19.535 5.99996 19.535 6.435C19.535 6.87002 19.711 7.28721 20.0244 7.59483C20.3377 7.90243 20.7628 8.07525 21.2058 8.07525C21.649 8.07525 22.0739 7.90243 22.3873 7.59483Z" fill="white"/>
</svg>
